<svg width="1087" height="443" viewBox="0 0 1087 443" fill="none" xmlns="http://www.w3.org/2000/svg">
<g clip-path="url(#clip0_2_49)">
<g clip-path="url(#clip1_2_49)">
<g clip-path="url(#clip2_2_49)">
<g clip-path="url(#clip3_2_49)">
<g clip-path="url(#clip4_2_49)">
<path d="M641.194 86.9388C641.54 83.7137 641.339 81.4967 641.6 80.0769C653.969 81.1574 664.902 71.9862 665.98 59.6361C667.054 47.2727 657.878 36.3424 645.512 35.2619C634.398 34.2901 623.472 42.506 622.598 52.5073C622.371 55.09 624.286 57.3663 626.867 57.5903C629.447 57.8143 631.731 55.907 631.956 53.3243C632.371 48.5838 638.913 44.1103 644.694 44.6143C651.903 45.2435 657.242 51.6146 656.613 58.8125C655.983 66.0071 649.619 71.3471 642.41 70.7179C635.186 70.0854 633.409 77.9883 631.876 86.0197L631.89 86.0131L641.194 86.9388Z" fill="#FF585F"/>
<path d="M525.048 86.6456C524.379 83.1175 523.413 80.8873 523.212 79.3653C535.318 76.6048 542.912 64.528 540.15 52.4381C537.381 40.3416 525.295 32.7484 513.192 35.509C502.312 37.9895 494.435 49.1571 496.67 58.9443C497.246 61.4743 499.765 63.0522 502.293 62.4757C504.821 61.8992 506.406 59.3857 505.829 56.8557C504.771 52.2174 509.626 45.955 515.285 44.6637C522.339 43.0561 529.375 47.4836 530.984 54.5267C532.592 61.5665 528.169 68.603 521.116 70.2106C514.415 71.7391 514.725 79.0656 515.631 86.7346L523.921 86.0164L525.048 86.6456Z" fill="#FF585F"/>
<path d="M698.939 119.542L683.501 173.956L646.023 159.402V277.495H601.715L665.756 288.142L684.243 177.086L717.753 196.957L742.215 145.191L698.939 119.542Z" fill="#FF585F"/>
<path d="M507.655 159.409L470.183 173.96L454.936 120.24L413.44 143.817L436.957 196.025L470.819 176.766L487.279 288.142L559.352 277.498H507.655V159.409Z" fill="#FF585F"/>
<path d="M642.773 274.632V155.028L681.359 170.01L697.96 111.494L642.78 90.0815L632.789 89.706L624.704 94.2488L594.767 76.0941C591.188 73.9397 586.695 72.5924 581.959 72.0224C582.226 66.2641 581.132 62.8512 581.165 60.789C594.319 59.7645 604.174 48.2511 603.149 35.1169C602.117 21.9729 590.595 12.1198 577.447 13.141C565.628 14.0601 555.615 24.5753 556.442 35.2059C556.656 37.9533 559.056 40.0023 561.801 39.7882C564.547 39.5741 566.603 37.1759 566.389 34.4317C565.997 29.3915 572.075 23.564 578.222 23.0863C585.885 22.4901 592.592 28.2353 593.189 35.8878C593.785 43.5371 588.047 50.2441 580.384 50.8404C571.729 51.5124 572.21 62.334 571.936 71.9961C567.154 72.5528 562.599 73.9133 558.986 76.1007L530.081 93.6294L523.097 89.706L510.974 90.0815L455.78 111.497L472.385 170.013L510.968 155.031V274.639L642.773 274.632ZM564.151 84.6361C570.667 80.7127 583.09 80.7259 589.593 84.6328L614.711 99.8655L577.932 120.53L540.058 99.2494L564.151 84.6361Z" fill="#FF585F"/>
</g>
</g>
</g>
</g>
</g>
<path d="M89.5962 283.99L75.9493 277.93C76.4841 276.054 76.6716 274.259 76.5118 272.547C76.3612 270.814 75.9003 269.192 75.1291 267.681C74.3578 266.17 73.2982 264.804 71.9501 263.584C70.6229 262.373 69.0453 261.361 67.2174 260.55C63.9147 259.083 60.6735 258.626 57.4938 259.179C54.3234 259.71 51.3713 261.234 48.6376 263.751C45.9131 266.246 43.5686 269.706 41.604 274.13C39.584 278.679 38.562 282.801 38.5378 286.495C38.5344 290.199 39.4077 293.384 41.1578 296.052C42.9078 298.719 45.3926 300.767 48.6122 302.197C50.4193 302.999 52.1975 303.503 53.9468 303.707C55.7168 303.921 57.4071 303.839 59.0176 303.46C60.6374 303.06 62.1372 302.371 63.5168 301.392C64.9172 300.422 66.1513 299.155 67.2192 297.59L80.8384 303.712C79.1848 306.484 77.0476 308.917 74.4269 311.011C71.8361 313.093 68.8817 314.679 65.5638 315.767C62.2758 316.843 58.7245 317.28 54.91 317.078C51.1254 316.865 47.1872 315.85 43.0952 314.033C37.4038 311.506 32.8866 307.958 29.5437 303.39C26.2216 298.831 24.3461 293.535 23.9172 287.501C23.509 281.476 24.8453 274.994 27.926 268.057C31.0159 261.098 34.9532 255.759 39.7379 252.04C44.5227 248.321 49.7256 246.18 55.3467 245.618C60.9771 245.034 66.5964 245.988 72.2048 248.478C75.9021 250.12 79.0988 252.161 81.7949 254.602C84.5117 257.051 86.653 259.817 88.2185 262.9C89.7933 265.962 90.7128 269.267 90.9771 272.816C91.2621 276.374 90.8018 280.099 89.5962 283.99Z" fill="black"/>
<path d="M125.72 271.66L100.286 336.68L86.7608 331.39L112.195 266.369L125.72 271.66Z" fill="black"/>
<path d="M139.027 351.912C134.023 350.178 130.064 347.616 127.151 344.225C124.265 340.82 122.497 336.863 121.846 332.356C121.203 327.828 121.759 323.03 123.515 317.962C125.286 312.851 127.822 308.726 131.122 305.588C134.43 302.429 138.267 300.415 142.633 299.547C147.027 298.665 151.727 299.09 156.73 300.824C161.734 302.558 165.678 305.128 168.563 308.533C171.477 311.924 173.256 315.883 173.899 320.412C174.55 324.919 173.99 329.728 172.219 334.839C170.463 339.907 167.931 344.021 164.624 347.18C161.323 350.318 157.476 352.328 153.081 353.21C148.715 354.079 144.03 353.646 139.027 351.912ZM142.775 341.304C145.051 342.093 147.175 342.108 149.146 341.347C151.125 340.566 152.891 339.182 154.446 337.195C156.021 335.215 157.308 332.787 158.305 329.909C159.302 327.031 159.794 324.328 159.781 321.797C159.789 319.275 159.258 317.094 158.187 315.256C157.117 313.418 155.443 312.104 153.167 311.315C150.869 310.519 148.709 310.504 146.688 311.271C144.688 312.045 142.9 313.422 141.324 315.401C139.769 317.388 138.494 319.821 137.496 322.698C136.499 325.576 135.997 328.276 135.988 330.799C136.001 333.329 136.554 335.517 137.646 337.362C138.768 339.194 140.477 340.508 142.775 341.304Z" fill="black"/>
<path d="M219.814 321.529L216.697 331.983L186.478 322.973L189.595 312.518L219.814 321.529ZM200.04 302.542L213.958 306.691L200.008 353.474C199.625 354.759 199.522 355.819 199.7 356.655C199.884 357.469 200.283 358.121 200.895 358.612C201.529 359.11 202.315 359.498 203.251 359.777C203.905 359.972 204.574 360.113 205.26 360.198C205.953 360.263 206.483 360.314 206.851 360.353L205.952 371.361C205.19 371.371 204.135 371.33 202.787 371.236C201.433 371.164 199.842 370.892 198.015 370.418C194.622 369.549 191.815 368.225 189.594 366.448C187.394 364.678 185.919 362.507 185.168 359.935C184.417 357.363 184.543 354.436 185.545 351.154L200.04 302.542Z" fill="black"/>
<path d="M241.359 350.225L233.999 379.59L219.912 376.059L236.886 308.335L250.576 311.767L244.087 337.659L244.682 337.808C246.58 335.097 249.02 333.214 252.003 332.157C254.991 331.079 258.414 331.023 262.272 331.99C265.799 332.874 268.681 334.416 270.918 336.617C273.182 338.801 274.682 341.508 275.419 344.739C276.183 347.953 276.057 351.541 275.041 355.504L266.935 387.845L252.848 384.314L260.324 354.486C261.13 351.362 260.947 348.727 259.774 346.582C258.624 344.442 256.615 343.013 253.749 342.295C251.832 341.814 250.032 341.797 248.35 342.242C246.691 342.693 245.246 343.596 244.016 344.952C242.814 346.29 241.928 348.048 241.359 350.225Z" fill="black"/>
<path d="M306.903 397.135C301.617 396.101 297.276 394.14 293.881 391.253C290.513 388.347 288.188 384.72 286.909 380.371C285.633 375.999 285.526 371.103 286.586 365.683C287.62 360.397 289.554 355.958 292.387 352.367C295.22 348.776 298.717 346.23 302.878 344.728C307.062 343.231 311.674 342.975 316.715 343.961C320.105 344.624 323.154 345.788 325.862 347.453C328.597 349.099 330.846 351.218 332.608 353.809C334.393 356.405 335.578 359.462 336.164 362.981C336.753 366.477 336.621 370.411 335.765 374.783L335 378.697L291.606 370.208L293.334 361.376L323.311 367.24C323.713 365.188 323.622 363.283 323.04 361.525C322.458 359.767 321.462 358.287 320.053 357.085C318.67 355.865 316.942 355.052 314.868 354.646C312.704 354.223 310.688 354.35 308.819 355.026C306.976 355.685 305.423 356.759 304.159 358.248C302.899 359.715 302.06 361.462 301.64 363.487L299.997 371.885C299.5 374.427 299.538 376.716 300.113 378.751C300.71 380.79 301.78 382.481 303.324 383.825C304.867 385.169 306.832 386.075 309.219 386.541C310.802 386.851 312.296 386.912 313.699 386.723C315.102 386.535 316.359 386.086 317.471 385.377C318.582 384.668 319.51 383.715 320.253 382.517L333.265 385.966C331.976 389.002 330.064 391.499 327.527 393.458C325.017 395.398 322.005 396.708 318.491 397.387C315.003 398.048 311.141 397.964 306.903 397.135Z" fill="black"/>
<path d="M394.645 372.46L381.369 371.371C381.306 370.214 380.968 369.132 380.356 368.125C379.746 367.096 378.873 366.224 377.736 365.509C376.625 364.774 375.238 364.287 373.573 364.047C371.346 363.726 369.4 363.927 367.734 364.651C366.071 365.353 365.128 366.48 364.904 368.032C364.725 369.269 365.069 370.387 365.936 371.384C366.802 372.382 368.402 373.313 370.734 374.177L379.842 377.42C384.731 379.181 388.248 381.388 390.391 384.039C392.535 386.691 393.337 389.883 392.798 393.617C392.308 397.014 390.877 399.85 388.506 402.126C386.156 404.405 383.146 406.014 379.474 406.954C375.828 407.875 371.755 408.011 367.256 407.362C360.395 406.372 355.135 404.155 351.476 400.711C347.842 397.248 346.034 392.991 346.05 387.942L360.295 389.239C360.421 391.393 361.225 393.139 362.708 394.478C364.194 395.795 366.22 396.638 368.784 397.008C371.304 397.371 373.398 397.18 375.067 396.433C376.762 395.667 377.732 394.51 377.979 392.961C378.145 391.653 377.748 390.505 376.788 389.517C375.831 388.506 374.261 387.614 372.076 386.84L363.359 383.757C358.444 382.014 354.929 379.716 352.815 376.863C350.723 374.012 349.956 370.652 350.514 366.783C350.995 363.454 352.308 360.716 354.455 358.568C356.624 356.424 359.445 354.937 362.917 354.106C366.412 353.278 370.375 353.184 374.807 353.823C381.353 354.767 386.304 356.894 389.662 360.202C393.042 363.514 394.703 367.6 394.645 372.46Z" fill="black"/>
<path d="M465.444 364.115L464.588 374.99L432.37 372.453L433.226 361.578L465.444 364.115ZM436.49 414.361L440.898 358.386C441.196 354.602 442.179 351.522 443.848 349.146C445.54 346.772 447.726 345.063 450.407 344.02C453.088 342.977 456.072 342.585 459.357 342.844C461.577 343.019 463.592 343.349 465.4 343.833C467.231 344.319 468.589 344.734 469.474 345.077L466.035 355.749C465.483 355.523 464.794 355.298 463.968 355.073C463.165 354.851 462.333 354.705 461.472 354.638C459.342 354.47 457.819 354.851 456.902 355.782C455.987 356.691 455.46 358.028 455.32 359.796L450.934 415.498L436.49 414.361Z" fill="black"/>
<path d="M500.27 419.224C494.978 419.04 490.44 417.756 486.657 415.373C482.897 412.968 480.043 409.708 478.094 405.592C476.146 401.453 475.265 396.704 475.452 391.344C475.64 385.938 476.849 381.25 479.08 377.279C481.311 373.287 484.385 370.232 488.302 368.117C492.242 365.98 496.858 365.004 502.151 365.188C507.443 365.372 511.969 366.667 515.728 369.072C519.511 371.455 522.377 374.716 524.325 378.854C526.274 382.97 527.154 387.731 526.966 393.137C526.78 398.497 525.571 403.174 523.34 407.167C521.109 411.137 518.024 414.191 514.084 416.327C510.167 418.443 505.562 419.408 500.27 419.224ZM500.729 407.983C503.137 408.067 505.171 407.455 506.831 406.149C508.492 404.819 509.773 402.976 510.673 400.62C511.597 398.264 512.111 395.565 512.217 392.521C512.323 389.477 511.998 386.748 511.24 384.334C510.505 381.921 509.356 379.993 507.791 378.552C506.227 377.11 504.241 376.347 501.833 376.264C499.403 376.179 497.335 376.801 495.628 378.128C493.945 379.457 492.641 381.299 491.718 383.655C490.817 386.011 490.314 388.711 490.208 391.755C490.102 394.798 490.416 397.527 491.151 399.94C491.908 402.355 493.081 404.283 494.668 405.725C496.279 407.146 498.299 407.898 500.729 407.983Z" fill="black"/>
<path d="M541.165 419.03L540.65 366.669L554.729 366.53L554.819 375.666L555.364 375.661C556.287 372.402 557.865 369.931 560.099 368.25C562.332 366.546 564.914 365.68 567.846 365.651C568.573 365.644 569.358 365.682 570.2 365.765C571.041 365.847 571.781 365.965 572.419 366.118L572.546 379.004C571.862 378.806 570.917 378.633 569.711 378.486C568.505 378.339 567.402 378.27 566.402 378.28C564.266 378.301 562.361 378.785 560.689 379.734C559.039 380.659 557.733 381.945 556.772 383.591C555.833 385.236 555.375 387.127 555.396 389.263L555.687 418.887L541.165 419.03Z" fill="black"/>
<path d="M638.803 416.269C633.432 416.683 628.726 415.952 624.683 414.075C620.662 412.174 617.454 409.299 615.06 405.449C612.664 401.576 611.254 396.886 610.83 391.38C610.416 386.009 611.094 381.216 612.866 376.999C614.638 372.782 617.329 369.395 620.939 366.837C624.571 364.277 628.948 362.8 634.069 362.405C637.513 362.14 640.762 362.448 643.816 363.329C646.891 364.186 649.624 365.628 652.014 367.655C654.427 369.68 656.385 372.31 657.888 375.545C659.389 378.757 660.311 382.584 660.654 387.025L660.96 391.002L616.875 394.401L616.183 385.428L646.638 383.08C646.478 380.995 645.882 379.183 644.852 377.644C643.821 376.105 642.467 374.945 640.788 374.162C639.13 373.355 637.247 373.033 635.14 373.196C632.942 373.365 631.033 374.025 629.412 375.176C627.812 376.302 626.601 377.752 625.781 379.525C624.958 381.275 624.615 383.182 624.752 385.246L625.409 393.777C625.608 396.361 626.256 398.556 627.353 400.363C628.473 402.169 629.955 403.514 631.801 404.397C633.647 405.281 635.783 405.629 638.207 405.442C639.816 405.318 641.272 404.978 642.574 404.421C643.876 403.865 644.968 403.097 645.85 402.117C646.731 401.137 647.371 399.971 647.768 398.619L661.228 398.47C660.797 401.74 659.62 404.657 657.697 407.222C655.796 409.762 653.243 411.828 650.038 413.42C646.853 414.987 643.108 415.937 638.803 416.269Z" fill="black"/>
<path d="M720.042 353.571L708.575 407.845L692.346 409.935L667.499 360.34L682.714 358.38L698.287 394.149L698.828 394.079L704.793 355.535L720.042 353.571Z" fill="black"/>
<path d="M764.017 400.071C758.717 401.032 753.96 400.785 749.747 399.331C745.552 397.851 742.067 395.318 739.293 391.733C736.514 388.125 734.632 383.604 733.647 378.17C732.687 372.87 732.873 368.032 734.205 363.656C735.537 359.28 737.867 355.636 741.197 352.723C744.548 349.806 748.751 347.889 753.805 346.973C757.204 346.357 760.468 346.332 763.596 346.897C766.743 347.435 769.608 348.59 772.193 350.362C774.8 352.13 777.016 354.547 778.842 357.611C780.664 360.653 781.972 364.366 782.766 368.749L783.477 372.674L739.97 380.558L738.365 371.702L768.421 366.256C768.048 364.198 767.271 362.457 766.088 361.031C764.906 359.605 763.44 358.589 761.69 357.982C759.959 357.349 758.053 357.221 755.973 357.598C753.804 357.991 751.972 358.843 750.477 360.153C749 361.437 747.945 363.002 747.309 364.85C746.67 366.675 746.523 368.607 746.87 370.646L748.396 379.066C748.858 381.615 749.726 383.733 751.002 385.419C752.3 387.101 753.912 388.287 755.839 388.977C757.766 389.667 759.925 389.795 762.318 389.362C763.906 389.074 765.319 388.587 766.558 387.901C767.796 387.214 768.804 386.339 769.581 385.274C770.358 384.209 770.875 382.984 771.132 381.598L784.507 380.075C784.411 383.372 783.538 386.394 781.888 389.141C780.256 391.862 777.927 394.178 774.901 396.089C771.894 397.974 768.266 399.301 764.017 400.071Z" fill="black"/>
<path d="M802.75 391.426L791.145 340.365L804.874 337.244L806.899 346.154L807.431 346.033C807.642 342.652 808.66 339.903 810.486 337.787C812.308 335.648 814.648 334.254 817.507 333.604C818.216 333.443 818.991 333.314 819.831 333.216C820.671 333.118 821.419 333.076 822.075 333.091L824.931 345.656C824.22 345.608 823.26 345.64 822.051 345.752C820.841 345.863 819.748 346.03 818.773 346.252C816.69 346.725 814.931 347.603 813.498 348.884C812.082 350.138 811.078 351.671 810.488 353.484C809.92 355.291 809.872 357.236 810.346 359.319L816.911 388.208L802.75 391.426Z" fill="black"/>
<path d="M860.931 397.725C859.155 398.211 857.45 398.525 855.816 398.666C854.21 398.823 852.845 398.832 851.723 398.691L852.016 387.371C853.798 387.425 855.353 387.294 856.68 386.978C858.029 386.655 859.096 386.033 859.881 385.112C860.687 384.184 861.181 382.847 861.363 381.1L861.599 378.738L829.257 331.748L843.987 327.714L864.599 361.94L865.125 361.796L865.524 321.817L880.353 317.756L876.047 379.094C875.849 382.07 875.215 384.789 874.145 387.25C873.103 389.727 871.504 391.849 869.35 393.617C867.201 395.408 864.394 396.777 860.931 397.725Z" fill="black"/>
<path d="M930.163 357.77C925.135 359.43 920.433 359.797 916.059 358.871C911.699 357.917 907.892 355.847 904.639 352.661C901.378 349.453 898.907 345.303 897.226 340.21C895.53 335.073 895.041 330.256 895.758 325.759C896.469 321.241 898.295 317.311 901.237 313.971C904.193 310.601 908.186 308.087 913.214 306.427C918.243 304.767 922.937 304.414 927.297 305.368C931.671 306.293 935.489 308.36 938.749 311.568C942.003 314.754 944.478 318.915 946.173 324.052C947.855 329.145 948.34 333.951 947.63 338.469C946.912 342.966 945.075 346.9 942.119 350.269C939.177 353.61 935.192 356.11 930.163 357.77ZM926.701 347.065C928.989 346.31 930.685 345.032 931.79 343.232C932.888 341.409 933.451 339.237 933.48 336.714C933.53 334.185 933.078 331.474 932.124 328.582C931.169 325.69 929.918 323.243 928.372 321.24C926.847 319.23 925.101 317.82 923.134 317.01C921.167 316.199 919.04 316.171 916.752 316.926C914.443 317.689 912.718 318.988 911.577 320.825C910.458 322.654 909.873 324.834 909.822 327.363C909.793 329.886 910.256 332.593 911.211 335.485C912.166 338.377 913.405 340.828 914.93 342.838C916.477 344.84 918.245 346.243 920.233 347.047C922.236 347.821 924.392 347.828 926.701 347.065Z" fill="black"/>
<path d="M971.145 310.057L982.138 338.263L968.607 343.537L949.591 294.748L962.487 289.722L965.842 298.33L966.414 298.107C966.388 294.849 967.323 291.898 969.221 289.256C971.11 286.593 973.865 284.556 977.486 283.144C980.874 281.824 984.117 281.414 987.215 281.914C990.312 282.414 993.096 283.768 995.567 285.976C998.029 288.163 999.999 291.152 1001.48 294.942L1013.58 326.007L1000.05 331.281L988.886 302.63C987.743 299.636 986.073 297.604 983.875 296.534C981.669 295.442 979.211 295.425 976.5 296.481C974.679 297.191 973.223 298.21 972.13 299.538C971.059 300.858 970.425 302.422 970.228 304.231C970.043 306.011 970.349 307.953 971.145 310.057Z" fill="black"/>
<path d="M1051.75 310.377C1046.84 312.593 1042.16 313.506 1037.72 313.116C1033.29 312.697 1029.3 311.084 1025.74 308.278C1022.17 305.451 1019.25 301.521 1016.97 296.487C1014.76 291.578 1013.77 286.839 1014 282.271C1014.23 277.703 1015.61 273.602 1018.13 269.969C1020.68 266.326 1024.29 263.449 1028.97 261.335C1032.12 259.914 1035.28 259.098 1038.45 258.888C1041.63 258.648 1044.69 259.075 1047.63 260.168C1050.59 261.251 1053.33 263.058 1055.84 265.589C1058.34 268.099 1060.51 271.384 1062.35 275.444L1063.99 279.08L1023.69 297.272L1019.98 289.069L1047.82 276.501C1046.96 274.596 1045.79 273.094 1044.29 271.998C1042.8 270.901 1041.13 270.27 1039.29 270.106C1037.46 269.911 1035.58 270.248 1033.65 271.118C1031.64 272.025 1030.07 273.295 1028.94 274.929C1027.81 276.532 1027.17 278.307 1027 280.253C1026.82 282.179 1027.15 284.089 1027.98 285.983L1031.5 293.782C1032.57 296.144 1033.92 297.988 1035.57 299.314C1037.23 300.632 1039.09 301.392 1041.12 301.594C1043.16 301.797 1045.29 301.398 1047.5 300.398C1048.97 299.734 1050.23 298.919 1051.26 297.953C1052.3 296.987 1053.06 295.893 1053.56 294.672C1054.05 293.45 1054.26 292.136 1054.17 290.729L1066.78 286.011C1067.49 289.233 1067.37 292.376 1066.44 295.442C1065.51 298.477 1063.81 301.288 1061.34 303.876C1058.88 306.433 1055.68 308.6 1051.75 310.377Z" fill="black"/>
<defs>
<clipPath id="clip0_2_49">
<rect width="364" height="310" fill="white" transform="translate(395)"/>
</clipPath>
<clipPath id="clip1_2_49">
<rect width="2388.49" height="566.958" fill="white" transform="translate(-616.417 13.0683)"/>
</clipPath>
<clipPath id="clip2_2_49">
<rect width="2388.49" height="566.958" fill="white" transform="translate(-616.417 13.0683)"/>
</clipPath>
<clipPath id="clip3_2_49">
<rect width="328.775" height="275.074" fill="white" transform="translate(413.44 13.0683)"/>
</clipPath>
<clipPath id="clip4_2_49">
<rect width="328.775" height="275.074" fill="white" transform="translate(413.44 13.0683)"/>
</clipPath>
</defs>
</svg>
